# xmcd CD database file
#
# Track frame offsets:
#	150
#	14906
#	33201
#	53328
#	66415
#	99572
#	120542
#	151079
#	172670
#	182774
#
# Disc length: 2863 seconds
#
# Revision: 1
# Processed by: cddbd v1.5.2PL0 Copyright (c) Steve Scherf et al.
# Submitted via: CDex 1.51
#
DISCID=740b2d0a
DTITLE=The Glory Gospel Singers - Live Album [CD 1)
DYEAR=1900
DGENRE=Gospel
TTITLE0=Let the church say amen
TTITLE1=O happy day
TTITLE2=He looked beyond my fault
TTITLE3=King of Kings
TTITLE4=Meddley of struggle
TTITLE5=Hush, somebody's callin' mah name
TTITLE6=Praise the name of jesus
TTITLE7=Sharon's song of tribulation
TTITLE8=Amazing grace
TTITLE9=He's got the whole world in his hands
EXTD=live album
EXTT0=
EXTT1=
EXTT2=
EXTT3=
EXTT4=
EXTT5=
EXTT6=
EXTT7=
EXTT8=
EXTT9=
PLAYORDER=
